<svg xmlns="http://www.w3.org/2000/svg" viewBox="0 0 512 512" role="img" aria-labelledby="title desc">
  <title id="title">All Risk, No Reward</title>
  <desc id="desc">A hand-drawn orange spark on a warm cream field.</desc>
  <rect width="512" height="512" rx="108" fill="#f1ecdf"/>
  <path d="M256 74c18 77 35 105 82 147 30-13 59-19 100-18-55 31-77 50-105 91 13 36 18 71 14 122-29-58-52-82-94-110-39 17-75 24-127 22 53-31 77-54 104-94-14-39-19-84-14-136 15 35 26 58 40 76Z" fill="#ca3f18"/>
  <circle cx="257" cy="255" r="51" fill="#17241e"/>
  <path d="M218 260c20 4 31 17 38 39 8-22 20-35 40-39-20-5-32-17-40-39-7 22-18 34-38 39Z" fill="#f1ecdf"/>
</svg>
