<svg xmlns="http://www.w3.org/2000/svg" viewBox="0 0 512 512">
  <rect width="512" height="512" fill="#ca3f18"/>
  <circle cx="256" cy="256" r="166" fill="#f1ecdf"/>
  <path d="M256 140c12 50 23 69 54 96 20-9 39-12 65-12-36 20-51 33-69 60 9 24 12 47 9 80-19-38-34-54-62-72-26 11-50 16-84 14 35-20 51-35 68-61-9-26-12-55-9-89 10 23 17 38 28 50Z" fill="#ca3f18"/>
  <circle cx="256" cy="256" r="34" fill="#17241e"/>
  <path d="M230 259c13 3 21 11 26 26 5-15 13-23 27-26-14-3-22-11-27-26-5 15-13 23-26 26Z" fill="#f1ecdf"/>
</svg>
